<svg width="40" height="40" viewBox="0 0 40 40" fill="none" xmlns="http://www.w3.org/2000/svg">
<circle cx="20" cy="20" r="20" fill="black" fill-opacity="0.5"/>
<path d="M16.3656 11.3663C16.5773 11.1545 16.8579 11.0258 17.1565 11.0035C17.4551 10.9812 17.7517 11.0667 17.9925 11.2446L18.1326 11.3663L25.6337 18.8674C25.8455 19.0791 25.9742 19.3597 25.9965 19.6583C26.0188 19.9568 25.9333 20.2535 25.7554 20.4943L25.6337 20.6343L18.1326 28.1355C17.9092 28.3571 17.6105 28.4863 17.296 28.4974C16.9815 28.5085 16.6745 28.4006 16.436 28.1952C16.1976 27.9898 16.0454 27.7021 16.0098 27.3895C15.9742 27.0768 16.0578 26.7623 16.2439 26.5086L16.3656 26.3685L22.9833 19.7509L16.3656 13.1332C16.1315 12.8988 16 12.581 16 12.2497C16 11.9184 16.1315 11.6007 16.3656 11.3663Z" fill="white"/>
</svg>
